<?xml version="1.0" standalone="no"?>
<!DOCTYPE svg PUBLIC "-//W3C//DTD SVG 20010904//EN"
 "http://www.w3.org/TR/2001/REC-SVG-20010904/DTD/svg10.dtd">
<svg version="1.0" xmlns="http://www.w3.org/2000/svg"
 width="740.000000pt" height="740.000000pt" viewBox="0 0 740.000000 740.000000"
 preserveAspectRatio="xMidYMid meet">

<g transform="translate(0.000000,740.000000) scale(0.100000,-0.100000)"
fill="#000000" stroke="none">
<path d="M2545 6847 c-202 -53 -316 -206 -400 -535 -162 -642 -1 -1338 404
-1742 110 -110 227 -192 309 -217 74 -23 265 -25 302 -3 24 14 22 15 -45 21
-151 14 -262 66 -357 168 -315 334 -462 654 -500 1093 -30 346 67 813 200 960
58 64 103 83 202 83 77 0 92 -3 155 -34 124 -61 223 -178 327 -386 134 -267
222 -591 248 -909 11 -145 12 -560 1 -679 -3 -43 -3 -81 1 -83 4 -2 19 16 34
41 115 197 147 658 74 1064 -70 383 -236 774 -411 965 -68 75 -182 150 -268
177 -82 26 -209 33 -276 16z"/>
<path d="M4633 6845 c-163 -35 -307 -144 -419 -315 -136 -210 -261 -544 -313
-836 -75 -419 -43 -867 75 -1072 14 -23 28 -40 32 -38 4 3 4 51 -1 108 -15
176 -2 672 22 826 38 251 114 499 220 719 105 217 208 341 336 404 63 31 78
34 155 34 68 0 93 -5 126 -22 98 -52 161 -167 220 -399 57 -225 75 -446 54
-655 -37 -359 -155 -651 -374 -919 -186 -228 -283 -290 -481 -309 -67 -6 -69
-7 -45 -21 37 -22 228 -20 302 3 82 25 199 108 308 217 362 362 532 956 444
1544 -44 300 -148 554 -262 644 -114 90 -249 120 -399 87z"/>
<path d="M1137 5401 c-132 -44 -224 -140 -268 -280 -45 -146 -44 -440 2 -678
61 -319 218 -628 432 -849 147 -154 280 -244 452 -310 123 -47 281 -36 384 27
18 11 31 22 28 25 -2 3 -34 0 -70 -6 -86 -15 -191 0 -272 40 -75 37 -250 166
-344 255 -181 171 -336 437 -407 700 -72 265 -83 596 -27 761 21 62 87 129
145 146 23 7 73 12 111 11 55 -1 80 -7 140 -36 189 -91 404 -349 571 -687 89
-181 138 -324 216 -645 34 -137 65 -263 69 -280 l8 -30 12 30 c41 99 39 343
-3 530 -90 401 -321 834 -577 1081 -97 93 -167 142 -259 180 -89 37 -255 44
-343 15z"/>
<path d="M5989 5410 c-200 -51 -416 -251 -613 -570 -197 -317 -326 -718 -326
-1010 0 -110 9 -182 31 -235 l12 -30 8 30 c4 17 37 151 74 298 89 363 145 518
261 728 106 191 282 418 395 508 158 126 330 152 441 68 79 -61 117 -184 118
-385 1 -412 -135 -805 -375 -1085 -133 -154 -389 -350 -500 -382 -63 -19 -155
-23 -235 -12 l-55 7 23 -19 c78 -67 270 -86 392 -39 181 70 313 160 461 315
321 336 499 855 459 1342 -19 237 -93 368 -250 443 -59 29 -75 32 -175 34 -60
2 -126 -1 -146 -6z"/>
<path d="M3780 4033 c-142 -22 -274 -70 -477 -175 -872 -448 -1388 -937 -1631
-1545 -205 -514 -162 -1026 115 -1368 109 -135 294 -255 478 -311 82 -25 104
-28 255 -28 175 -1 204 4 350 60 69 27 127 63 100 64 -8 0 -49 -11 -90 -24
-447 -143 -939 90 -1114 527 -51 128 -68 212 -73 372 -6 174 5 283 47 440 125
471 463 914 970 1271 284 200 725 442 942 516 83 29 105 32 208 32 106 1 121
-2 192 -30 102 -42 204 -111 433 -295 350 -281 575 -490 737 -685 237 -286
394 -609 449 -920 26 -153 29 -361 6 -456 -89 -365 -324 -591 -647 -624 -194
-19 -528 58 -818 189 -124 57 -312 162 -312 175 1 4 41 34 91 66 206 136 444
349 528 475 93 137 143 282 163 468 10 96 9 123 -5 197 -20 101 -50 172 -102
241 -86 115 -187 167 -320 167 -129 0 -243 -53 -360 -166 l-57 -57 -52 49
c-64 60 -152 114 -236 143 -95 34 -260 33 -345 0 -114 -46 -209 -167 -251
-321 -28 -102 -24 -288 9 -413 76 -287 288 -582 597 -831 47 -37 86 -72 88
-76 3 -8 -190 -146 -355 -255 -75 -49 -94 -73 -45 -54 41 16 264 135 377 202
88 52 102 57 120 46 383 -247 762 -388 1126 -420 310 -26 576 80 761 305 179
218 259 488 236 795 -44 586 -343 1101 -943 1622 -179 156 -499 410 -608 483
-182 121 -374 175 -537 149z m543 -1357 c138 -50 217 -188 217 -382 0 -168
-46 -328 -135 -465 -77 -119 -274 -310 -509 -493 l-87 -68 -96 73 c-241 183
-433 406 -529 613 -134 290 -100 596 76 686 116 59 292 14 422 -109 l60 -56
-45 -85 c-108 -203 -115 -327 -24 -407 47 -42 96 -56 173 -51 78 5 136 41 174
108 48 87 24 258 -57 397 l-25 43 21 28 c11 15 39 46 63 68 106 98 210 132
301 100z m-453 -426 c32 -111 16 -164 -49 -162 -71 2 -75 41 -18 165 28 62 32
67 44 51 7 -10 18 -34 23 -54z"/>
</g>
</svg>
